<svg width="380" height="61" viewBox="0 0 380 61" fill="none" xmlns="http://www.w3.org/2000/svg">
<path d="M11.4702 49L0.887784 12.6364H10.6001L16.0866 36.4645H16.3885L22.6562 12.6364H30.5753L36.843 36.5178H37.1449L42.6491 12.6364H52.3438L41.7791 49H33.3097L26.7578 26.9474H26.4737L19.9219 49H11.4702ZM65.696 49.5149C62.8433 49.5149 60.3812 48.9527 58.3097 47.8281C56.25 46.6918 54.6638 45.076 53.5511 42.9808C52.4503 40.8738 51.8999 38.3703 51.8999 35.4702C51.8999 32.6529 52.4562 30.1908 53.5689 28.0838C54.6816 25.965 56.25 24.3196 58.2741 23.1477C60.2983 21.964 62.6835 21.3722 65.4297 21.3722C67.371 21.3722 69.1465 21.674 70.7564 22.2777C72.3662 22.8814 73.7571 23.7751 74.929 24.9588C76.1009 26.1425 77.0123 27.6044 77.6634 29.3445C78.3144 31.0727 78.6399 33.0554 78.6399 35.2926V37.4588H54.9361V32.4162H70.5611C70.5492 31.4929 70.3303 30.6702 69.9041 29.9482C69.478 29.2261 68.892 28.6638 68.1463 28.2614C67.4124 27.8471 66.5661 27.6399 65.6072 27.6399C64.6366 27.6399 63.7666 27.8589 62.9972 28.2969C62.2277 28.723 61.6181 29.3089 61.1683 30.0547C60.7185 30.7886 60.4818 31.6231 60.4581 32.5582V37.6896C60.4581 38.8023 60.6771 39.7789 61.1151 40.6193C61.553 41.4479 62.1745 42.093 62.9794 42.5547C63.7843 43.0163 64.7431 43.2472 65.8558 43.2472C66.6252 43.2472 67.3236 43.1406 67.951 42.9276C68.5784 42.7145 69.117 42.4008 69.5668 41.9865C70.0166 41.5722 70.3539 41.0632 70.5788 40.4595L78.5511 40.6903C78.2197 42.4777 77.4917 44.0343 76.3672 45.3601C75.2545 46.674 73.7926 47.6979 71.9815 48.4318C70.1705 49.1539 68.0753 49.5149 65.696 49.5149ZM95.823 49.5149C92.9702 49.5149 90.5081 48.9527 88.4366 47.8281C86.377 46.6918 84.7908 45.076 83.6781 42.9808C82.5772 40.8738 82.0268 38.3703 82.0268 35.4702C82.0268 32.6529 82.5832 30.1908 83.6958 28.0838C84.8085 25.965 86.377 24.3196 88.4011 23.1477C90.4252 21.964 92.8104 21.3722 95.5566 21.3722C97.4979 21.3722 99.2735 21.674 100.883 22.2777C102.493 22.8814 103.884 23.7751 105.056 24.9588C106.228 26.1425 107.139 27.6044 107.79 29.3445C108.441 31.0727 108.767 33.0554 108.767 35.2926V37.4588H85.063V32.4162H100.688C100.676 31.4929 100.457 30.6702 100.031 29.9482C99.6049 29.2261 99.019 28.6638 98.2733 28.2614C97.5394 27.8471 96.693 27.6399 95.7342 27.6399C94.7636 27.6399 93.8935 27.8589 93.1241 28.2969C92.3547 28.723 91.7451 29.3089 91.2953 30.0547C90.8455 30.7886 90.6087 31.6231 90.585 32.5582V37.6896C90.585 38.8023 90.804 39.7789 91.242 40.6193C91.68 41.4479 92.3014 42.093 93.1064 42.5547C93.9113 43.0163 94.8701 43.2472 95.9828 43.2472C96.7522 43.2472 97.4506 43.1406 98.0779 42.9276C98.7053 42.7145 99.2439 42.4008 99.6937 41.9865C100.144 41.5722 100.481 41.0632 100.706 40.4595L108.678 40.6903C108.347 42.4777 107.619 44.0343 106.494 45.3601C105.381 46.674 103.92 47.6979 102.108 48.4318C100.297 49.1539 98.2022 49.5149 95.823 49.5149ZM121.032 41.8445L121.067 31.4929H122.275L129.945 21.7273H139.782L128.382 35.7188H126.092L121.032 41.8445ZM113.201 49V12.6364H121.884V49H113.201ZM130.14 49L123.002 37.6719L128.72 31.5107L140.172 49H130.14ZM152.441 19.7741V12.6364H183.176V19.7741H172.15V49H163.485V19.7741H152.441ZM184.637 49V21.7273H193.071V26.6989H193.355C193.852 24.8996 194.663 23.562 195.787 22.6861C196.912 21.7983 198.22 21.3544 199.711 21.3544C200.114 21.3544 200.528 21.384 200.954 21.4432C201.381 21.4905 201.777 21.5675 202.144 21.674V29.2202C201.73 29.0781 201.185 28.9657 200.51 28.8828C199.848 28.8 199.256 28.7585 198.735 28.7585C197.705 28.7585 196.776 28.9893 195.947 29.451C195.131 29.9008 194.485 30.5341 194.012 31.3509C193.55 32.1558 193.319 33.1027 193.319 34.1918V49H184.637ZM212.345 49.4616C210.605 49.4616 209.06 49.1716 207.71 48.5916C206.373 47.9998 205.313 47.112 204.532 45.9283C203.763 44.7327 203.378 43.2353 203.378 41.4361C203.378 39.9209 203.644 38.6425 204.177 37.6009C204.71 36.5592 205.444 35.7128 206.379 35.0618C207.314 34.4107 208.391 33.9195 209.61 33.5881C210.829 33.2448 212.132 33.014 213.517 32.8956C215.067 32.7536 216.316 32.6056 217.263 32.4517C218.21 32.286 218.896 32.0552 219.323 31.7592C219.761 31.4515 219.98 31.0194 219.98 30.4631V30.3743C219.98 29.4628 219.666 28.7585 219.039 28.2614C218.411 27.7642 217.565 27.5156 216.499 27.5156C215.351 27.5156 214.428 27.7642 213.73 28.2614C213.031 28.7585 212.587 29.4451 212.398 30.321L204.39 30.0369C204.627 28.3797 205.236 26.9001 206.219 25.598C207.213 24.2841 208.575 23.2543 210.303 22.5085C212.043 21.7509 214.132 21.3722 216.57 21.3722C218.311 21.3722 219.914 21.5793 221.382 21.9936C222.85 22.3961 224.128 22.9879 225.218 23.7692C226.307 24.5386 227.147 25.4856 227.739 26.6101C228.343 27.7346 228.644 29.0189 228.644 30.4631V49H220.477V45.2003H220.264C219.778 46.1236 219.157 46.9048 218.399 47.544C217.654 48.1832 216.772 48.6626 215.754 48.9822C214.748 49.3018 213.611 49.4616 212.345 49.4616ZM215.026 43.7798C215.961 43.7798 216.801 43.5904 217.547 43.2116C218.305 42.8329 218.908 42.312 219.358 41.6491C219.808 40.9744 220.033 40.1932 220.033 39.3054V36.7131C219.784 36.8433 219.482 36.9616 219.127 37.0682C218.784 37.1747 218.405 37.2753 217.991 37.37C217.577 37.4647 217.151 37.5476 216.713 37.6186C216.275 37.6896 215.854 37.7547 215.452 37.8139C214.635 37.9441 213.937 38.1454 213.357 38.4176C212.789 38.6899 212.351 39.045 212.043 39.483C211.747 39.9091 211.599 40.4181 211.599 41.0099C211.599 41.9096 211.919 42.5961 212.558 43.0696C213.209 43.5431 214.031 43.7798 215.026 43.7798ZM246.684 49.5149C243.808 49.5149 241.34 48.9231 239.28 47.7393C237.232 46.5556 235.658 44.9103 234.557 42.8033C233.456 40.6844 232.906 38.2341 232.906 35.4524C232.906 32.6589 233.456 30.2086 234.557 28.1016C235.67 25.9827 237.25 24.3314 239.298 23.1477C241.357 21.964 243.814 21.3722 246.666 21.3722C249.188 21.3722 251.383 21.8279 253.254 22.7393C255.136 23.6508 256.604 24.9411 257.657 26.6101C258.722 28.2673 259.285 30.2145 259.344 32.4517H251.23C251.064 31.0549 250.59 29.96 249.809 29.1669C249.04 28.3738 248.034 27.9773 246.791 27.9773C245.785 27.9773 244.903 28.2614 244.145 28.8295C243.387 29.3859 242.796 30.2145 242.369 31.3153C241.955 32.4044 241.748 33.7538 241.748 35.3636C241.748 36.9735 241.955 38.3348 242.369 39.4474C242.796 40.5483 243.387 41.3828 244.145 41.951C244.903 42.5073 245.785 42.7855 246.791 42.7855C247.596 42.7855 248.306 42.6139 248.921 42.2706C249.549 41.9273 250.064 41.4242 250.466 40.7614C250.869 40.0866 251.123 39.2699 251.23 38.3111H259.344C259.261 40.5601 258.699 42.5251 257.657 44.206C256.627 45.8868 255.177 47.1948 253.307 48.13C251.449 49.0533 249.241 49.5149 246.684 49.5149ZM271.618 41.8445L271.653 31.4929H272.86L280.531 21.7273H290.368L278.968 35.7188H276.678L271.618 41.8445ZM263.787 49V12.6364H272.47V49H263.787ZM280.726 49L273.588 37.6719L279.306 31.5107L290.758 49H280.726ZM305.1 49.5149C302.248 49.5149 299.785 48.9527 297.714 47.8281C295.654 46.6918 294.068 45.076 292.955 42.9808C291.855 40.8738 291.304 38.3703 291.304 35.4702C291.304 32.6529 291.86 30.1908 292.973 28.0838C294.086 25.965 295.654 24.3196 297.678 23.1477C299.703 21.964 302.088 21.3722 304.834 21.3722C306.775 21.3722 308.551 21.674 310.161 22.2777C311.771 22.8814 313.161 23.7751 314.333 24.9588C315.505 26.1425 316.417 27.6044 317.068 29.3445C317.719 31.0727 318.044 33.0554 318.044 35.2926V37.4588H294.34V32.4162H309.965C309.954 31.4929 309.735 30.6702 309.308 29.9482C308.882 29.2261 308.296 28.6638 307.551 28.2614C306.817 27.8471 305.97 27.6399 305.012 27.6399C304.041 27.6399 303.171 27.8589 302.401 28.2969C301.632 28.723 301.022 29.3089 300.573 30.0547C300.123 30.7886 299.886 31.6231 299.862 32.5582V37.6896C299.862 38.8023 300.081 39.7789 300.519 40.6193C300.957 41.4479 301.579 42.093 302.384 42.5547C303.189 43.0163 304.147 43.2472 305.26 43.2472C306.03 43.2472 306.728 43.1406 307.355 42.9276C307.983 42.7145 308.521 42.4008 308.971 41.9865C309.421 41.5722 309.758 41.0632 309.983 40.4595L317.955 40.6903C317.624 42.4777 316.896 44.0343 315.771 45.3601C314.659 46.674 313.197 47.6979 311.386 48.4318C309.575 49.1539 307.48 49.5149 305.1 49.5149ZM322.479 49V21.7273H330.913V26.6989H331.197C331.694 24.8996 332.505 23.562 333.629 22.6861C334.754 21.7983 336.062 21.3544 337.553 21.3544C337.956 21.3544 338.37 21.384 338.796 21.4432C339.222 21.4905 339.619 21.5675 339.986 21.674V29.2202C339.571 29.0781 339.027 28.9657 338.352 28.8828C337.689 28.8 337.098 28.7585 336.577 28.7585C335.547 28.7585 334.618 28.9893 333.789 29.451C332.972 29.9008 332.327 30.5341 331.854 31.3509C331.392 32.1558 331.161 33.1027 331.161 34.1918V49H322.479Z" fill="black"/>
<path d="M379.239 15.9395C379.675 15.8369 380 15.4461 380 14.9787V11.988C380 11.4425 379.558 11 379.012 11H351.988C351.442 11 351 11.4425 351 11.988V14.9788C351 15.4463 351.325 15.8371 351.761 15.9397C352.06 21.2607 354.823 26.1371 359.284 29.1255L361.148 30.3746L359.284 31.6238C354.823 34.612 352.059 39.4885 351.761 44.8096C351.325 44.9122 351 45.3029 351 45.7704V48.7612C351 49.3068 351.442 49.7492 351.988 49.7492H379.012C379.558 49.7492 380 49.3068 380 48.7612V45.7704C380 45.3029 379.675 44.9122 379.239 44.8096C378.94 39.4885 376.177 34.6121 371.716 31.6238L369.852 30.3746L371.716 29.1255C376.177 26.1371 378.94 21.2605 379.239 15.9395ZM352.976 12.976H378.024V13.9908H352.976V12.976ZM378.024 47.7731H352.976V46.7582H378.024V47.7731ZM367.527 29.5537C367.253 29.7372 367.089 30.0449 367.089 30.3746C367.089 30.7043 367.253 31.012 367.527 31.1955L370.617 33.2655C374.521 35.8809 376.955 40.1329 377.258 44.7824H353.742C354.045 40.133 356.479 35.881 360.383 33.2655L363.473 31.1955C363.747 31.012 363.911 30.7043 363.911 30.3746C363.911 30.0449 363.747 29.7372 363.473 29.5537L360.383 27.4837C356.479 24.8682 354.045 20.6162 353.742 15.9668H377.258C376.955 20.6163 374.521 24.8682 370.617 27.4837L367.527 29.5537Z" fill="black"/>
<path d="M368.077 24.6113H362.923C362.514 24.6113 362.147 24.8641 362 25.2466C361.854 25.6293 361.959 26.0625 362.264 26.3355L364.841 28.6408C365.029 28.8086 365.264 28.8924 365.5 28.8924C365.735 28.8924 365.971 28.8086 366.158 28.6408L368.735 26.3355C369.04 26.0623 369.145 25.6291 368.999 25.2466C368.853 24.8641 368.486 24.6113 368.077 24.6113Z" fill="black"/>
<path d="M365.459 34.1489L362.954 35.7585C360.763 37.2264 359.448 39.6901 359.448 42.3274H372.046C372.046 39.6901 370.731 37.2264 368.54 35.7585L366.034 34.1489C365.857 34.0429 365.637 34.0429 365.459 34.1489Z" fill="black"/>
</svg>
